<svg width="120" height="50" viewBox="0 0 120 50" fill="none" xmlns="http://www.w3.org/2000/svg">
<path d="M48.5213 13.7995H56.5982L57.3161 17.698H52.8888V22.7104H56.2392V26.547H52.8888V30.9406H57.0768L56.5982 35.0866H48.5213V13.7995Z" fill="#221F1F" stroke="#221F1F"/>
<path fill-rule="evenodd" clip-rule="evenodd" d="M58.752 13.7376V35.0866H62.94V28.3416H63.4187L65.4529 35.0866H69.8204L67.7264 28.3416C68.8406 28.2991 69.1826 27.9116 69.4614 26.7946V15.6559C69.2264 14.6845 68.9156 14.2298 67.7264 13.7376H58.752ZM65.4529 17.5743H62.94V24.7525H65.4529V17.5743Z" fill="#221F1F" stroke="#221F1F"/>
<path d="M70.5383 13.7995H74.7264L76.6409 27.1658L78.2563 13.7995H82.5041L78.8546 35.1485H74.3076L70.5383 13.7995Z" fill="#221F1F" stroke="#221F1F"/>
<path d="M83.7007 13.7376H87.8289V35.0866H83.7007V13.7376Z" fill="#221F1F" stroke="#221F1F"/>
<path d="M97.4613 13.7376L98.1194 17.698H93.9314V31.0025H98.1194L97.4613 35.0866H91.7776C90.5563 34.7218 89.8999 34.4656 89.5639 32.4876V15.9653C89.7684 14.6188 90.2474 14.1835 91.4784 13.7376H97.4613Z" fill="#221F1F" stroke="#221F1F"/>
<path d="M99.6152 13.7376H107.572L108.41 17.698H103.803V22.7104H107.213V26.4851H103.803V31.1881H108.051L107.572 35.0866H99.6152V13.7376Z" fill="#221F1F" stroke="#221F1F"/>
<path d="M118.282 13.7995L119 17.698H113.974V22.5248H117.684C118.788 22.8407 118.908 23.2001 119 23.8861V32.7352C119.012 34.2693 118.542 34.6364 117.444 35.0248H110.803L110.085 31.25H114.872V26.1757H111.401C110.391 25.8839 109.969 25.5551 109.846 24.2574V16.0891C110.08 14.5839 110.533 14.1068 111.82 13.7995H118.282Z" fill="#221F1F" stroke="#221F1F"/>
<path d="M46.0085 13.7995L46.7264 17.698H41.7008V22.5248H45.4102C46.5149 22.8407 46.6351 23.2001 46.7264 23.8861V32.7352C46.7389 34.2693 46.2684 34.6364 45.1708 35.0248H38.5298L37.8119 31.25H42.5982V26.1757H39.1281C38.1172 25.8839 37.6961 25.5551 37.5726 24.2574V16.0891C37.8062 14.5839 38.2597 14.1068 39.5469 13.7995H46.0085Z" fill="#221F1F" stroke="#221F1F"/>
<path d="M7.83759 24.5049V25.6807H0V24.5049H7.83759Z" fill="#72C455"/>
<path d="M31.8888 0H7.95724V24.6287H11.9658V25.7426H7.95724V32.0545H8.97434V50H16.1538V48.948H30.9914V42.8218H31.9486V41.646H19.4444V38.552H16.5726V37.4381H19.4444V27.1658H30.5128V24.6287H30.0341V19.3069H17.5299V8.41584H31.8888V0Z" fill="#72C455"/>
</svg>
